<svg xmlns="http://www.w3.org/2000/svg" width="56" height="56" viewBox="0 0 24 24">
  <defs>
    <linearGradient id="iu-cache-grad" x1="0%" y1="0%" x2="100%" y2="100%">
      <stop offset="0%" stop-color="#f97316" />
      <stop offset="50%" stop-color="#ec4899" />
      <stop offset="100%" stop-color="#7c3aed" />
    </linearGradient>
  </defs>
  <path fill="url(#iu-cache-grad)" d="m19 8l-4 4h3a6 6 0 0 1-6 6c-1 0-1.97-.25-2.8-.7l-1.46 1.46A7.93 7.93 0 0 0 12 20a8 8 0 0 0 8-8h3M6 12a6 6 0 0 1 6-6c1 0 1.97.25 2.8.7l1.46-1.46A7.93 7.93 0 0 0 12 4a8 8 0 0 0-8 8H1l4 4l4-4"/>
</svg>
